<svg id="Layer_1" enable-background="new 0 0 511.892 511.892" height="512" viewBox="0 0 511.892 511.892" width="512" xmlns="http://www.w3.org/2000/svg"><path d="m353.407 487.019.947-6.125.092-44.792h-20l-.062 30.187 3.206 20.73c1.358 8.783-.94 17.285-5.757 23.967h27.33c-4.816-6.683-7.115-15.184-5.756-23.967z"/><path d="m256.739 428.134c-4.25-5.063-6.03-11.701-4.884-18.212l9.76-55.443v-90.871h9.492v36.954l11.47-65.157.022-.125.025-.125c3.643-18.406 19.84-31.782 38.561-31.892-13.646-8.681-22.725-23.928-22.725-41.264 0-26.955 21.929-48.884 48.884-48.884 2.287 0 4.534.17 6.739.476l-20.569-16.007c-7.33-5.704-16.482-8.91-25.771-9.026-11.37-.137-62.543.001-78.833 0-21.444.218-40.781 12.95-49.265 32.647l-8.75 20.315-16.64-18.449c-1.171.703-2.394 1.318-3.667 1.828-3.078 1.234-6.326 1.859-9.654 1.859-3.849 0-7.596-.85-10.998-2.438-2.201 5.646-6.349 10.433-11.813 13.397l44.696 49.554c8.909 9.877 25.137 7.265 30.43-5.024l20.048-46.549c1.089-2.528 2.535-4.702 4.55-6.419-.027 20.653.014 299.156 0 310.052 0 12.142 9.643 21.984 21.785 21.984s21.984-9.843 21.984-21.984v-6.872c-1.806-1.184-3.454-2.63-4.877-4.325z"/><ellipse cx="266.366" cy="37.969" rx="37.969" ry="37.969" transform="matrix(.383 -.924 .924 .383 129.353 269.529)"/><path d="m276.689 436.102 9.113 58.926c1.683 10.884 11.872 18.308 22.712 16.628 10.863-1.68 18.308-11.849 16.628-22.712l-8.172-52.842z"/><path d="m374.027 436.102-8.172 52.842c-1.68 10.864 5.765 21.032 16.628 22.712 10.86 1.681 21.032-5.764 22.712-16.628l9.113-58.926z"/><path d="m396.089 237.485c-2.557-12.918-13.889-22.227-27.058-22.227h-47.613c-13.179 0-24.463 9.299-27.022 22.227l-30.722 174.518c-1.111 6.313 3.745 12.099 10.155 12.099h146.645c6.498 0 11.377-5.938 10.115-12.313zm-59.326 45.205c4.502.547 8.111 3.479 9.696 7.43 1.585-3.951 5.193-6.883 9.696-7.43 4.235-.514 8.104 1.166 10.621 4.054 3.708 4.253 10.471 3.85 13.357-.999.025-.042.05-.084.075-.127 1.029 1.777 1.62 3.839 1.62 6.04 0 11.062-12.688 16.55-24.16 15.1-5.043-.637-9.412-3.444-11.208-7.695-1.795 4.251-6.165 7.057-11.208 7.695-11.473 1.45-24.16-4.038-24.16-15.1 0-2.201.592-4.263 1.62-6.04.025.042.049.085.075.127 2.885 4.849 9.649 5.252 13.357.999 2.515-2.888 6.384-4.568 10.619-4.054z"/><circle cx="347.343" cy="161.998" r="36.884"/><path d="m121.684 114.142-.574-11.841 7.762 8.959c5.748 6.635 15.835 7.375 22.49 1.61 6.66-5.769 7.38-15.829 1.61-22.49-5.774-6.665-15.843-7.37-22.49-1.61-1.02.884-1.896 1.886-2.647 2.966l-7.666-8.848-1.8-37.141c-.311-6.422-5.616-11.419-11.977-11.42-.196 0-.392.005-.59.014l1.641 33.858-22.196-25.617c-5.009 4.34-5.552 11.918-1.212 16.927l24.349 28.104.567 11.699c-1.383-.283-2.704-.384-3.963-.322-8.799.425-15.58 7.893-15.153 16.697.427 8.815 7.912 15.582 16.696 15.153 8.763-.426 15.579-7.9 15.153-16.698zm16.656-16.301c1.653-1.433 4.141-1.243 5.563.398 1.427 1.646 1.25 4.135-.398 5.562-1.642 1.423-4.132 1.253-5.563-.398-1.427-1.646-1.25-4.135.398-5.562zm-36.52 17.264c-.105-2.164 1.557-4.024 3.748-4.13.065-.003.129-.005.194-.005 2.087 0 3.833 1.645 3.936 3.751.105 2.175-1.571 4.025-3.748 4.129-.066.003-.131.005-.196.005-2.085.002-3.831-1.634-3.934-3.75z"/></svg>