<svg id="Layer_1" enable-background="new 0 0 512 512" height="512" viewBox="0 0 512 512" width="512" xmlns="http://www.w3.org/2000/svg"><path d="m201.921 183.882c4.714-.335 9.195-1.416 13.347-3.104-5.476-9.198-6.627-20.61-2.595-30.968 4.707-12.091 15.341-20.399 27.878-22.194-5.797-19.029-24.123-32.237-44.807-30.769-24.034 1.706-42.134 22.572-40.428 46.606 1.705 24.034 22.571 42.134 46.605 40.429z"/><path d="m255.521 204.483c-3.498 2.806-6.189 6.686-7.498 11.332l-28.956 102.741 14.185-84.433c1.741-10.361-2.148-21.051-10.624-27.883-4.631-3.732-10.361-5.841-16.283-6.401l-51.538-4.875c-15.387-1.455-29.426 9.2-31.982 24.443l-8.434 50.594 18.366-1.11 28.617-26.13-27.04 40.706-70.417 4.257c-10.897.659-19.196 10.026-18.537 20.923.658 10.882 10.011 19.197 20.922 18.537l80.242-4.851c6.188-.374 11.842-3.629 15.272-8.793l32.487-48.905-20.288 57.008c-3.112 8.745-11.085 14.365-19.799 14.904-24.823 1.531-70.067 4.99-83.899 6.057-10.871.839-20.251 8.748-21.726 20.279l-15.639 122.389c-1.812 14.183 9.239 26.728 23.558 26.728 11.76 0 21.968-8.742 23.498-20.715l10.457-81.836h54.236v53.773c-29.006 5.141-52.458 23.033-61.513 37.493-3.074 4.911.524 11.285 6.317 11.285h142.835c5.793 0 9.392-6.374 6.317-11.284-9.056-14.461-32.508-32.353-61.514-37.494v-53.773h45.765c9.988 0 18.758-6.64 21.468-16.253l46.583-165.281c.892-3.165 1.048-6.361.581-9.412z"/><path d="m477.845 477.32-45.118-133.043-2.47-52.944v-155.95c0-16.911-13.709-30.619-30.619-30.619h-54.603c-16.91 0-30.619 13.709-30.619 30.619v16.039l4.267 1.661 44.486-16.637-45.415 31.948-66.372-25.836c-10.597-4.125-22.532 1.121-26.657 11.719-4.113 10.565 1.094 22.522 11.719 26.657l76.66 29.841c7.537 2.936 14.526 1.788 19.953-2.029l55.761-39.993c-46.459 52.014-44.486 50.493-47.089 52.324-8.097 5.694-17.943 7.63-27.313 5.754v58.888l-7.433 76.594c-.081.846-.123 1.695-.123 2.545l.045 120.909c.006 14.491 11.754 26.235 26.244 26.234h.01c14.494-.005 26.24-11.759 26.235-26.254l-.045-119.633 7.146-73.632h11.282c.004.155.002.31.01.466l2.681 57.475c.115 2.454.573 4.88 1.362 7.206l46.308 136.549c4.656 13.728 19.555 21.08 33.282 16.425 13.726-4.655 21.08-19.557 16.425-33.283z"/><circle cx="370.088" cy="45.326" r="45.326"/></svg>